<?xml version="1.0" encoding="UTF-8" standalone="no"?>
<svg
   xmlns:dc="http://purl.org/dc/elements/1.1/"
   xmlns:cc="http://creativecommons.org/ns#"
   xmlns:rdf="http://www.w3.org/1999/02/22-rdf-syntax-ns#"
   xmlns:svg="http://www.w3.org/2000/svg"
   xmlns="http://www.w3.org/2000/svg"
   xmlns:sodipodi="http://sodipodi.sourceforge.net/DTD/sodipodi-0.dtd"
   xmlns:inkscape="http://www.inkscape.org/namespaces/inkscape"
   inkscape:version="1.0.2 (1.0.2+r75+1)"
   inkscape:label="montreal_logo"
   sodipodi:docname="poppy_logo__white.svg"
   id="svg3958"
   viewBox="-3.0048 -3.0048 99.993423 100.16"
   height="215.09435"
   width="215.19527"
   version="1.1">
  <metadata
     id="metadata9">
    <rdf:RDF>
      <cc:Work
         rdf:about="">
        <dc:format>image/svg+xml</dc:format>
        <dc:type
           rdf:resource="http://purl.org/dc/dcmitype/StillImage" />
        <dc:title></dc:title>
      </cc:Work>
    </rdf:RDF>
  </metadata>
  <sodipodi:namedview
     inkscape:current-layer="svg3958"
     inkscape:window-maximized="1"
     inkscape:window-y="0"
     inkscape:window-x="0"
     inkscape:cy="112.83261"
     inkscape:cx="66.260069"
     inkscape:zoom="1.5361328"
     fit-margin-bottom="0"
     fit-margin-right="0"
     fit-margin-left="0"
     fit-margin-top="0"
     showgrid="false"
     id="namedview7"
     inkscape:window-height="1023"
     inkscape:window-width="1920"
     inkscape:pageshadow="2"
     inkscape:pageopacity="0"
     guidetolerance="10"
     gridtolerance="10"
     objecttolerance="10"
     borderopacity="1"
     bordercolor="#666666"
     pagecolor="#ffffff"
     inkscape:document-rotation="0" />
  <defs
     id="defs3960" />
  <path
     d="m 46.667056,4.7732 c -3.223,-4.79799999 -8.495,-7.778 -13.874,-7.778 -9.214,0 -16.439,7.319 -16.439,16.665 0,0.898 0.191,2.154 0.54,3.718 -0.847,-0.18 -2.431,-0.479 -3.742,-0.479 -9.3419999,0 -16.6649999,7.187 -16.6649999,16.365 0,5.401 3.01200004,10.679998 7.856,13.909002 -4.88999996,3.267998 -7.818,8.365 -7.818,13.722998 0,9.068002 7.482,16.44 16.6729999,16.44 1.122,0 2.487,-0.262998 3.67,-0.522001 -0.328,1.501001 -0.514,2.764 -0.514,3.676001 0,9.345999 7.225,16.665 16.439,16.665 5.461,0 10.556,-2.849001 13.75,-7.619 3.074,4.564999 8.596,7.619 13.889,7.619 9.182,0 16.365,-7.319001 16.365,-16.665 0,-1.214999 -0.264,-2.68 -0.477,-3.676001 1.565,0.335002 2.818,0.522001 3.712,0.522001 9.188,0 16.662,-7.371998 16.662,-16.44 0,-5.408 -2.91,-10.661998 -7.612,-13.826001 4.702,-3.159999 7.612,-8.395999 7.612,-13.816999 0,-9.02 -7.51,-16.363 -16.741,-16.363 -1.154,0 -2.551,0.293 -3.643,0.531 0.182,-0.852 0.487,-2.468 0.487,-3.761 0,-9.346 -7.183,-16.665 -16.365,-16.665 -5.347,0 -10.562,2.97800001 -13.765,7.778 z m -21.628,16.691 v 0 c -0.801,-0.754 -3.399,-3.559 -3.406,-7.986 0,-0.01 0,-0.01 0,-0.02 0,-6.852 5.76,-11.104 11.109,-11.117 2.976,0 5.771,1.15 7.883,3.254 2.107,2.0990003 3.257,4.908 3.262,7.91 v 25.829 c 0,3.194 -2.838,4.962001 -4.837,4.962001 h -25.942 c -2.938,0.01001 -5.8299999,-1.186001 -7.9479999,-3.296001 -1.452,-1.446 -3.185,-3.976 -3.19,-7.8 0,-2.944 1.189,-5.834 3.282,-7.927 2.06,-2.062 4.8079999,-3.202 7.7509999,-3.205 3.919,0 6.55,1.82 8.069,3.35 0,0 0.981,0.978 1.306,1.293 -0.223,0.579 -0.44,1.327 -0.44,2.369 0,3.699 3.05,6.721 6.792,6.739 1.807,0.01 3.415,-0.649 4.67,-1.894 1.275,-1.269 2.037,-3.085 2.037,-4.862 0,-1.725 -0.779,-3.583 -2.044,-4.849 -1.243,-1.238 -2.87,-1.89 -4.716,-1.889 -1.012,0 -1.853,0.293 -2.305,0.446 -0.227,-0.223 -1.328,-1.297 -1.328,-1.297 z m 24.326,-7.996 c -0.01,-2.935 1.15,-5.8319997 3.259,-7.949 1.445,-1.453 3.985,-3.185 7.803,-3.191 2.947,0 5.842,1.193 7.93,3.283 2.062,2.0590003 3.201,4.815 3.202,7.758 0,0 0,0.01 0,0.01 0,3.911001 -1.814,6.534001 -3.346,8.046001 0,0 -0.979,0.985 -1.296,1.303999 -0.577,-0.213 -1.329,-0.432999 -2.367,-0.434999 -3.693,0 -6.713,3.049999 -6.731,6.796 0,1.803 0.643,3.413 1.888,4.657999 1.267,1.275 3.081,2.040001 4.861,2.043001 0,0 0.01,0 0.01,0 1.728,0 3.574,-0.787 4.83899,-2.05 1.23801,-1.231001 1.88401,-2.856 1.88401,-4.695 0,0 0,-0.01 0,-0.01 0,-1.005 -0.285,-1.858 -0.436,-2.301 0.222,-0.23 1.298,-1.336 1.298,-1.336 0.759,-0.803 3.563,-3.403 7.98199,-3.41 6.87001,-0.01 11.13201,5.757 11.145,11.112 0,2.973 -1.15299,5.774 -3.258,7.888 -2.09699,2.105 -4.902,3.291001 -7.90499,3.295001 h -25.825 c -3.194,0 -4.934,-2.883001 -4.936,-4.885001 V 13.4652 Z M 5.2220561,68.933202 c -2.114,-2.109003 -3.328,-4.995001 -3.333,-7.918003 v 0 c -0.01,-2.973997 1.148,-5.775999 3.255,-7.887 2.099,-2.107997 4.8999999,-3.314 7.8999999,-3.318 h 25.838 c 3.193,0 4.995,2.903003 5,4.901003 v 25.933 c 0,2.939999 -1.227,5.837 -3.338,7.955 -1.445,1.451999 -3.975,3.186 -7.797,3.188999 -6.134,0 -11.127,-4.945003 -11.135,-11.039003 0,-0.01001 0,-0.01001 0,-0.01998 0,-3.900997 1.822,-6.528998 3.351,-8.047996 0,0 0.981,-0.986003 1.294,-1.303004 0.586,0.215003 1.331,0.432004 2.368,0.435002 3.707,0 6.719,-3.045 6.734,-6.793001 0,-1.800999 -0.642,-3.41 -1.88,-4.656999 -1.267,-1.274999 -3.089,-2.036999 -4.869,-2.042 -1.718,0 -3.581,0.776999 -4.848,2.043998 -1.233,1.238003 -1.892,2.861001 -1.892,4.700002 0,0 0,0 0,0.01001 0,1.006004 0.29,1.859002 0.449,2.298004 -0.232,0.234998 -1.306,1.340996 -1.306,1.340996 -0.75,0.800002 -3.568,3.405004 -7.986,3.41 -2.964,0.01001 -5.7329999,-1.127996 -7.8049999,-3.194 z m 47.4899999,19.558 c -2.104,-2.095001 -3.344,-4.901999 -3.347,-7.902003 V 54.756198 c 0,-3.192999 2.942,-4.944998 4.944,-4.945999 h 25.928 c 5.353,-0.01001 11.137,4.209 11.147,11.081 0.01,6.13 -4.946,11.125 -11.045,11.135003 -3.921,0 -6.55,-1.818001 -8.059,-3.350001 0,0 -0.988,-0.981002 -1.303,-1.301001 0.21,-0.580999 0.427,-1.326999 0.427,-2.364998 v 0 c 0,-3.699 -3.045,-6.716 -6.792,-6.729001 -1.803,-0.01001 -3.404,0.643001 -4.649,1.878001 -1.274,1.268996 -2.041,3.091998 -2.046,4.871997 0,1.722001 0.786,3.583 2.051,4.849003 1.235,1.237998 2.861,1.89 4.707,1.887998 1.01,0 1.855,-0.287999 2.298,-0.444999 0.231,0.226998 1.332,1.3 1.332,1.3 0.804,0.756002 3.409,3.560998 3.418,7.986999 0,0 0,0.01001 0,0.01001 0,6.857997 -5.771,11.117996 -11.123,11.127999 -2.966,0.01001 -5.773,-1.153002 -7.888,-3.259002"
     id="path3853"
     style="fill:#ffffff;fill-opacity:1;fill-rule:nonzero;stroke:none;stroke-width:1" />
</svg>
