<?xml version="1.0" standalone="no"?>
<!DOCTYPE svg PUBLIC "-//W3C//DTD SVG 20010904//EN"
 "http://www.w3.org/TR/2001/REC-SVG-20010904/DTD/svg10.dtd">
<svg version="1.0" xmlns="http://www.w3.org/2000/svg"
 width="700.000000pt" height="700.000000pt" viewBox="0 0 700.000000 700.000000"
 preserveAspectRatio="xMidYMid meet">
<metadata>
Created by potrace 1.11, written by Peter Selinger 2001-2013
</metadata>
<g transform="translate(0.000000,700.000000) scale(0.100000,-0.100000)"
fill="#000000" stroke="none">
<path d="M614 6985 c-226 -49 -430 -206 -529 -408 -88 -180 -80 142 -80 -3077
l0 -2855 23 -80 c40 -136 95 -227 202 -335 105 -106 191 -158 330 -202 l75
-23 2865 0 2865 0 75 23 c139 44 225 96 331 202 81 81 102 109 142 190 91 187
82 -147 82 3080 l0 2855 -23 79 c-40 139 -94 229 -202 336 -102 103 -186 155
-325 202 l-70 23 -2850 2 c-2340 1 -2861 -1 -2911 -12z m2255 -437 c221 -53
426 -184 569 -362 31 -39 60 -73 64 -76 4 -3 20 14 36 36 116 160 298 298 485
369 353 132 764 41 1033 -230 86 -87 143 -169 200 -289 70 -148 88 -235 89
-411 0 -82 -4 -175 -8 -206 l-8 -56 68 13 c37 7 114 13 169 14 433 1 830 -288
962 -700 35 -109 45 -180 45 -300 -1 -266 -99 -503 -288 -695 -49 -51 -108
-106 -130 -123 l-40 -31 35 -27 c19 -15 78 -70 130 -124 196 -200 293 -433
292 -705 0 -134 -15 -216 -62 -347 -80 -222 -271 -434 -490 -543 -195 -98
-402 -133 -589 -101 -52 9 -96 14 -98 12 -3 -2 1 -38 7 -80 18 -107 8 -309
-20 -411 -79 -291 -277 -531 -544 -656 -382 -179 -817 -99 -1139 210 -38 36
-85 87 -104 113 l-34 48 -58 -73 c-220 -277 -559 -425 -891 -387 -489 55 -846
415 -900 908 -10 96 -7 163 16 296 7 37 6 39 -17 33 -325 -77 -700 38 -938
288 -122 128 -210 283 -252 442 -26 96 -37 311 -20 405 43 246 199 493 410
651 l54 40 -24 19 c-190 150 -301 287 -378 468 -136 318 -87 694 129 978 134
178 323 301 558 364 99 26 295 35 398 18 42 -6 78 -10 80 -7 3 3 -2 54 -11
115 -53 357 122 746 428 954 229 156 523 210 786 146z"/>
<path d="M2548 6240 c-340 -62 -578 -340 -578 -674 0 -196 69 -354 218 -501
66 -65 67 -66 107 -58 22 4 78 8 125 8 74 -1 94 -5 152 -32 210 -98 299 -354
197 -561 -79 -161 -255 -254 -426 -225 -140 24 -259 114 -319 241 -33 68 -44
192 -24 269 l12 48 -77 73 c-198 187 -434 249 -690 181 -91 -24 -198 -91 -281
-174 -66 -67 -90 -99 -127 -176 -112 -229 -98 -486 37 -686 77 -114 219 -220
361 -270 l80 -28 874 -3 c976 -3 931 -6 1027 67 33 25 59 56 81 100 l33 63 0
877 c0 835 -1 882 -19 953 -61 239 -250 430 -486 493 -73 19 -213 27 -277 15z"/>
<path d="M4205 6234 c-236 -52 -422 -222 -503 -459 l-27 -80 0 -895 0 -895 22
-47 c30 -66 95 -132 156 -159 l52 -24 880 0 c815 0 885 1 945 18 238 65 424
250 489 487 40 145 22 339 -45 472 -118 236 -319 371 -575 385 -206 12 -381
-59 -540 -218 l-67 -66 16 -68 c49 -222 -106 -443 -342 -486 -164 -30 -364 74
-435 226 -52 111 -53 242 -2 351 34 72 104 152 165 188 89 52 213 70 312 45
53 -14 53 -13 151 100 77 90 136 203 159 307 22 102 15 271 -16 364 -68 204
-237 370 -445 436 -103 33 -250 40 -350 18z"/>
<path d="M1274 3310 c-243 -64 -443 -265 -498 -500 -20 -84 -20 -249 -1 -325
37 -146 144 -308 259 -390 217 -155 469 -176 706 -59 76 38 110 63 182 133
l87 86 -16 60 c-33 124 18 290 118 379 97 88 228 129 346 109 244 -42 399
-270 339 -500 -21 -83 -45 -128 -99 -189 -98 -109 -255 -157 -395 -120 l-52
13 -73 -76 c-141 -148 -196 -273 -204 -466 -6 -143 7 -209 67 -330 89 -180
246 -309 441 -361 86 -23 253 -23 339 0 124 33 207 82 305 181 74 73 99 106
132 175 77 158 74 117 71 1100 l-3 875 -24 49 c-29 60 -85 117 -143 148 l-43
23 -885 2 c-838 2 -889 1 -956 -17z"/>
<path d="M3900 3321 c-97 -30 -190 -119 -215 -206 -14 -45 -15 -167 -13 -926
l3 -874 28 -80 c79 -225 265 -399 483 -455 361 -93 743 130 834 486 64 247
-16 502 -217 696 l-48 46 -70 -15 c-200 -42 -391 70 -465 274 -31 87 -26 212
13 297 72 156 208 246 372 246 167 0 316 -99 387 -256 27 -61 37 -202 18 -260
l-13 -38 92 -88 c144 -138 288 -197 482 -198 391 -1 701 332 676 725 -19 301
-220 538 -522 615 -75 19 -108 20 -939 19 -474 0 -872 -4 -886 -8z"/>
</g>
</svg>
